<svg width="16" height="16" viewBox="0 0 16 16" fill="none" xmlns="http://www.w3.org/2000/svg">
<path d="M6.66212 13.4563C6.90076 13.2702 7.11722 13.0537 7.55008 12.6209L13.097 7.07399C12.342 6.75978 11.4479 6.24365 10.6022 5.39801C9.75647 4.55224 9.24031 3.65794 8.92612 2.90293L3.37912 8.44992C2.94629 8.88276 2.7298 9.09924 2.54367 9.33788C2.3241 9.61939 2.13585 9.92398 1.98226 10.2463C1.85205 10.5195 1.75526 10.8099 1.56167 11.3906L0.540836 14.4531C0.445571 14.7389 0.519954 15.054 0.732973 15.267C0.945993 15.48 1.26108 15.5544 1.54688 15.4592L4.60938 14.4383C5.19014 14.2447 5.48052 14.1479 5.75373 14.0177C6.07602 13.8641 6.38061 13.6759 6.66212 13.4563Z" fill="#848484" style="fill:#848484;fill:color(display-p3 0.5167 0.5167 0.5167);fill-opacity:1;"/>
<path d="M14.6362 5.53479C15.7879 4.38301 15.7879 2.51561 14.6362 1.36383C13.4844 0.212055 11.617 0.212055 10.4652 1.36383L9.79993 2.02911C9.80904 2.05662 9.81849 2.08451 9.82829 2.11277C10.0721 2.81562 10.5322 3.737 11.3977 4.60252C12.2632 5.46803 13.1846 5.92811 13.8875 6.17196C13.9156 6.18172 13.9434 6.19113 13.9708 6.2002L14.6362 5.53479Z" fill="#848484" style="fill:#848484;fill:color(display-p3 0.5167 0.5167 0.5167);fill-opacity:1;"/>
</svg>
