<svg width="100" height="69" viewBox="0 0 100 69" fill="none" xmlns="http://www.w3.org/2000/svg">
<path d="M0 8C0 3.58172 3.58172 0 8 0H92C96.4183 0 100 3.58172 100 8V60.0292C100 64.4475 96.4183 68.0292 92 68.0292H8C3.58172 68.0292 0 64.4475 0 60.0292V8Z" fill="url(#paint0_linear_308_600)" style=""/>
<path d="M9.92697 19.3869C9.92697 14.9686 13.5087 11.3869 17.927 11.3869H40.0292C44.4474 11.3869 48.0292 14.9686 48.0292 19.3869V48.4963C48.0292 52.9146 44.4474 56.4963 40.0292 56.4963H17.927C13.5087 56.4963 9.92697 52.9146 9.92697 48.4963V19.3869Z" fill="#95B751" style="fill:#95B751;fill:color(display-p3 0.5843 0.7176 0.3176);fill-opacity:1;"/>
<path d="M17.0727 34.8923C17.0496 34.9047 17.0251 34.9147 17.0002 34.9229C16.5892 35.06 16.4862 35.5944 16.8177 35.8734C17.9142 36.796 19.9348 38.5097 21.081 39.5658C21.6662 40.1049 22.535 40.7455 22.3344 41.5155C22.3148 41.5908 22.2901 41.6734 22.2597 41.7646C21.9669 42.6432 22.7243 43.5107 23.6323 43.3282C24.7293 43.1078 26.0184 42.8368 26.8094 42.6302C27.26 42.5125 27.7521 42.3074 28.1831 42.484C28.3684 42.5599 28.461 42.7224 28.461 43.0702C28.461 43.5618 28.461 45.4634 28.461 46.3722C28.461 46.6426 28.6802 46.8613 28.9506 46.8613C29.221 46.8613 29.4402 46.6435 29.4402 46.3731C29.4402 45.4064 29.4402 43.3199 29.4402 43.0702C29.4402 42.4174 29.7666 42.4174 30.4194 42.4174C30.8072 42.4174 32.8081 42.8783 34.3684 43.2524C35.2417 43.4617 36.0593 42.6626 35.6816 41.8479C35.6579 41.7968 35.6323 41.7376 35.6154 41.6839C35.3336 40.7852 35.6508 40.7762 35.9679 40.4591C36.2197 40.2073 39.5788 37.2367 41.1015 35.8915C41.4313 35.6002 41.3197 35.0625 40.9022 34.9233C40.8766 34.9148 40.851 34.9043 40.8271 34.8917C40.2234 34.5716 40.5374 34.2515 40.5374 33.9314C40.5374 33.85 40.5982 33.5862 40.6895 33.2359C41.0246 31.9508 39.9071 30.9939 38.579 30.9939C38.2526 30.9939 37.9263 30.9939 37.9263 30.6675C37.9263 29.8202 36.6605 29.7163 36.0925 30.345C35.2359 31.2929 34.1962 32.4392 34.0096 32.6258C33.6022 33.0333 33.1947 32.932 33.0254 32.6396C32.7965 32.2444 33.0483 31.7369 33.1327 31.2881C33.3171 30.309 33.718 28.526 34.0631 27.0283C34.2833 26.0727 33.2548 25.3331 32.3777 25.7717C31.8312 26.0449 31.5135 26.0894 31.4245 25.7137C31.3836 25.5409 31.4152 25.476 31.3337 25.3183C30.7798 24.2463 27.4864 24.1307 26.9468 25.2099C26.8971 25.3094 26.8571 25.3893 26.8291 25.4453C26.5451 26.0133 26.2612 26.0871 25.9772 25.8817C25.8869 25.8164 25.8121 25.7534 25.7135 25.7015C24.9008 25.2745 23.92 25.9692 24.1266 26.8637C24.5987 28.908 25.1972 31.5777 25.1972 31.973C25.1972 32.4498 25.0231 32.7524 24.675 32.7538C24.3587 32.7552 24.1089 32.5058 23.8962 32.2718L21.7491 29.91C21.3933 29.5186 20.7639 29.6348 20.4901 30.0875C20.3951 30.2445 20.3199 30.457 20.2243 30.6137C20.1883 30.6726 20.1414 30.7223 20.0868 30.7559C19.8218 30.9193 19.4739 30.6648 19.1663 30.617C19.1189 30.6096 19.0697 30.6016 19.0188 30.5929C17.8461 30.3933 16.8153 31.4606 17.2245 32.5776C17.2734 32.7111 17.3214 32.8378 17.3675 32.9541C17.5398 33.3888 17.7572 33.8881 17.5851 34.3227C17.5005 34.5363 17.3479 34.7444 17.0727 34.8923Z" fill="white" style="fill:white;fill:white;fill-opacity:1;"/>
<path d="M54.5985 37.2263H86.2774V42.0438H54.5985V37.2263Z" fill="#95B751" style="fill:#95B751;fill:color(display-p3 0.5843 0.7176 0.3176);fill-opacity:1;"/>
<path d="M54.5985 44.5255H86.2774V49.3431H54.5985V44.5255Z" fill="#95B751" style="fill:#95B751;fill:color(display-p3 0.5843 0.7176 0.3176);fill-opacity:1;"/>
<path d="M62.0447 34.1507C60.6972 34.1507 59.5377 33.9 58.5662 33.3985C57.6104 32.8815 56.8739 32.1607 56.3569 31.2362C55.8554 30.2961 55.6047 29.1914 55.6047 27.9222H59.4123C59.4123 28.9094 59.6239 29.6693 60.0469 30.2021C60.4857 30.7191 61.1516 30.9777 62.0447 30.9777C62.7498 30.9777 63.3061 30.8288 63.7135 30.5311C64.1366 30.2177 64.3481 29.779 64.3481 29.2149C64.3481 28.7918 64.1914 28.4628 63.878 28.2277C63.5803 27.977 63.1729 27.7733 62.6558 27.6167C62.1544 27.4443 61.5982 27.2876 60.9871 27.1466C60.3916 26.9899 59.7884 26.8019 59.1773 26.5825C58.5819 26.3631 58.0256 26.0732 57.5085 25.7129C57.0071 25.3525 56.5997 24.8824 56.2863 24.3026C55.9886 23.7229 55.8398 22.9864 55.8398 22.0933C55.8398 21.1688 56.0905 20.3384 56.5919 19.6019C57.109 18.8655 57.8219 18.2779 58.7307 17.8391C59.6395 17.4004 60.705 17.181 61.9272 17.181C63.0397 17.181 64.0739 17.4004 65.0297 17.8391C65.9855 18.2622 66.7611 18.8811 67.3566 19.6959C67.952 20.5107 68.2654 21.5135 68.2967 22.7044H64.4186C64.3873 22.1716 64.2462 21.7329 63.9955 21.3882C63.7605 21.0435 63.455 20.7849 63.0789 20.6126C62.7185 20.4402 62.3346 20.354 61.9272 20.354C61.3475 20.354 60.8539 20.495 60.4465 20.7771C60.0391 21.0435 59.8354 21.443 59.8354 21.9758C59.8354 22.3832 59.9842 22.7044 60.282 22.9394C60.5953 23.1745 61.0027 23.3703 61.5042 23.527C62.0212 23.668 62.5775 23.8091 63.1729 23.9501C63.784 24.0911 64.3873 24.2713 64.9827 24.4907C65.5938 24.6944 66.15 24.9842 66.6515 25.3603C67.1685 25.7364 67.5759 26.2378 67.8736 26.8645C68.187 27.4756 68.3437 28.2591 68.3437 29.2149C68.3437 30.1707 68.0695 31.0247 67.5211 31.7768C66.9883 32.5132 66.2441 33.093 65.2882 33.5161C64.3481 33.9391 63.2669 34.1507 62.0447 34.1507Z" fill="#95B751" style="fill:#95B751;fill:color(display-p3 0.5843 0.7176 0.3176);fill-opacity:1;"/>
<path d="M71.8217 33.8686V17.4631H75.6998V20.9181L75.3472 23.9736L77.7681 20.9181L80.5885 17.4631H85.1717L75.6998 28.8388V33.8686H71.8217ZM81.1056 33.8686L77.5785 26.5825L80 23.6743L85.6183 33.8686H81.1056Z" fill="#95B751" style="fill:#95B751;fill:color(display-p3 0.5843 0.7176 0.3176);fill-opacity:1;"/>
<defs>
<linearGradient id="paint0_linear_308_600" x1="50" y1="0" x2="50" y2="68.0292" gradientUnits="userSpaceOnUse">
<stop stop-color="white" style="stop-color:white;stop-color:white;stop-opacity:1;"/>
<stop offset="1" stop-color="#FAFEFF" style="stop-color:#FAFEFF;stop-color:color(display-p3 0.9792 0.9958 1.0000);stop-opacity:1;"/>
</linearGradient>
</defs>
</svg>
