<svg width="35" height="35" viewBox="0 0 35 35" fill="none" xmlns="http://www.w3.org/2000/svg">
<path d="M0 16C0 10.3995 0 7.59921 1.08993 5.46009C2.04867 3.57847 3.57847 2.04867 5.46009 1.08993C7.59921 0 10.3995 0 16 0H19C24.6005 0 27.4008 0 29.5399 1.08993C31.4215 2.04867 32.9513 3.57847 33.9101 5.46009C35 7.59921 35 10.3995 35 16V19C35 24.6005 35 27.4008 33.9101 29.5399C32.9513 31.4215 31.4215 32.9513 29.5399 33.9101C27.4008 35 24.6005 35 19 35H16C10.3995 35 7.59921 35 5.46009 33.9101C3.57847 32.9513 2.04867 31.4215 1.08993 29.5399C0 27.4008 0 24.6005 0 19V16Z" fill="#3BAC29" style="fill:#3BAC29;fill:color(display-p3 0.2314 0.6745 0.1608);fill-opacity:1;"/>
<path d="M8.00299 16.7155C8.04033 14.8733 8.059 13.9522 8.67093 13.1636C8.78262 13.0197 8.9465 12.8487 9.08385 12.7327C9.83639 12.0974 10.8299 12.0974 12.8171 12.0974C13.527 12.0974 13.882 12.0974 14.2204 12.0045C14.2907 11.9852 14.3602 11.963 14.4289 11.9378C14.7594 11.8167 15.0557 11.6084 15.6485 11.1916C17.9872 9.54738 19.1565 8.72527 20.138 9.08241C20.3261 9.15088 20.5083 9.24972 20.671 9.37162C21.5194 10.0074 21.5839 11.4868 21.7128 14.4454C21.7606 15.5409 21.7931 16.4785 21.7931 17C21.7931 17.5215 21.7606 18.4591 21.7128 19.5546C21.5839 22.5132 21.5194 23.9926 20.671 24.6284C20.5083 24.7503 20.3261 24.8491 20.138 24.9176C19.1565 25.2747 17.9872 24.4526 15.6485 22.8084C15.0557 22.3916 14.7594 22.1833 14.4289 22.0622C14.3602 22.037 14.2907 22.0148 14.2204 21.9955C13.882 21.9026 13.527 21.9026 12.8171 21.9026C10.8299 21.9026 9.83639 21.9026 9.08385 21.2673C8.9465 21.1513 8.78262 20.9803 8.67093 20.8364C8.059 20.0478 8.04033 19.1267 8.00299 17.2845C8.00103 17.1878 8 17.0928 8 17C8 16.9072 8.00103 16.8122 8.00299 16.7155Z" fill="white" style="fill:white;fill:white;fill-opacity:1;"/>
<path fill-rule="evenodd" clip-rule="evenodd" d="M25.4895 10.5522C25.7821 10.2922 26.217 10.3343 26.4608 10.6463L25.931 11.1171C26.4608 10.6463 26.4606 10.646 26.4608 10.6463L26.4619 10.6477L26.4631 10.6492L26.4658 10.6528L26.4727 10.6618C26.4779 10.6688 26.4844 10.6776 26.4921 10.6881C26.5075 10.7093 26.5275 10.7377 26.5515 10.7736C26.5995 10.8453 26.6635 10.9467 26.7379 11.0789C26.8868 11.3435 27.077 11.7309 27.2644 12.2504C27.6397 13.2911 28 14.8514 28 17.0002C28 19.1491 27.6397 20.7094 27.2644 21.7501C27.077 22.2695 26.8868 22.657 26.7379 22.9216C26.6635 23.0538 26.5995 23.1552 26.5515 23.2269C26.5275 23.2627 26.5075 23.2912 26.4921 23.3123C26.4844 23.3229 26.4779 23.3317 26.4727 23.3386L26.4658 23.3477L26.4631 23.3513L26.4619 23.3528C26.4616 23.3531 26.4608 23.3541 25.931 22.8833L26.4608 23.3541C26.217 23.6661 25.7821 23.7083 25.4895 23.4483C25.1983 23.1895 25.1578 22.729 25.3977 22.417C25.3983 22.4163 25.3994 22.4148 25.4009 22.4127C25.4058 22.406 25.4154 22.3925 25.4291 22.372C25.4565 22.3311 25.5003 22.2625 25.5552 22.1649C25.6649 21.9698 25.8195 21.6587 25.977 21.2221C26.2913 20.3508 26.6207 18.9695 26.6207 17.0002C26.6207 15.0309 26.2913 13.6497 25.977 12.7784C25.8195 12.3418 25.6649 12.0307 25.5552 11.8356C25.5003 11.738 25.4565 11.6693 25.4291 11.6284C25.4154 11.608 25.4058 11.5945 25.4009 11.5878C25.3994 11.5856 25.3983 11.5842 25.3977 11.5834C25.3977 11.5834 25.3977 11.5834 25.3977 11.5834" fill="white" style="fill:white;fill:white;fill-opacity:1;"/>
<path fill-rule="evenodd" clip-rule="evenodd" d="M23.7571 13.416C24.0901 13.2187 24.51 13.3466 24.6949 13.7017L24.0921 14.0588C24.6949 13.7017 24.6948 13.7013 24.6949 13.7017L24.6956 13.7029L24.6963 13.7043L24.6978 13.7073L24.7014 13.7143L24.7102 13.7323C24.7169 13.7461 24.7251 13.7635 24.7345 13.7846C24.7533 13.8268 24.7772 13.8836 24.8042 13.9557C24.8584 14.1 24.9251 14.3049 24.99 14.5748C25.1199 15.115 25.2415 15.9119 25.2415 17.0003C25.2415 18.0888 25.1199 18.8857 24.99 19.4259C24.9251 19.6958 24.8584 19.9007 24.8042 20.045C24.7772 20.1171 24.7533 20.1739 24.7345 20.2161C24.7251 20.2372 24.7169 20.2546 24.7102 20.2684L24.7014 20.2864L24.6978 20.2934L24.6963 20.2964L24.6956 20.2978C24.6954 20.2981 24.6949 20.299 24.0921 19.9419L24.6949 20.299C24.51 20.6541 24.0901 20.782 23.7571 20.5847C23.427 20.3892 23.3063 19.9474 23.4846 19.5938L23.4892 19.5838C23.4955 19.5697 23.5075 19.5415 23.5236 19.4987C23.5557 19.4132 23.6039 19.2688 23.6539 19.0606C23.7539 18.6448 23.8622 17.9709 23.8622 17.0003C23.8622 16.0298 23.7539 15.3559 23.6539 14.9401C23.6039 14.7319 23.5557 14.5875 23.5236 14.502C23.5075 14.4592 23.4955 14.431 23.4892 14.4169L23.4846 14.4069C23.3063 14.0533 23.427 13.6115 23.7571 13.416Z" fill="white" style="fill:white;fill:white;fill-opacity:1;"/>
</svg>
