<svg width="70" height="70" viewBox="0 0 70 70" fill="none" xmlns="http://www.w3.org/2000/svg">
<g id="Bold Duotone / Video, Audio, Sound / Video Library">
<path id="Subtract" fill-rule="evenodd" clip-rule="evenodd" d="M46.6475 20H24.3525C13.0469 20 7.39406 20 4.21877 23.3445C1.04347 26.689 1.79057 31.8561 3.28476 42.1904L4.70171 51.9904C5.87347 60.0946 6.45935 64.1467 9.46494 66.5734C12.4705 69 16.9035 69 25.7694 69H45.2305C54.0965 69 58.5295 69 61.5351 66.5734C64.5407 64.1467 65.1266 60.0946 66.2983 51.9904L67.7153 42.1904C69.2094 31.8563 69.9565 26.689 66.7813 23.3445C63.606 20 57.9531 20 46.6475 20ZM44.147 47.9678C46.0177 46.7946 46.0177 43.7575 44.147 42.5843L32.8523 35.5006C31.0342 34.3603 28.8 35.8444 28.8 38.1923V52.3598C28.8 54.7077 31.0342 56.1918 32.8523 55.0515L44.147 47.9678Z" fill="white" style="fill:white;fill:white;fill-opacity:1;"/>
<path id="Subtract_2" opacity="0.4" d="M24.4173 7.00002H46.5827C47.3209 6.99985 47.8869 6.99972 48.3817 7.0449C51.8996 7.36613 54.779 9.3405 56 12H15C16.221 9.3405 19.1004 7.36613 22.6183 7.0449C23.1131 6.99972 23.6791 6.99985 24.4173 7.00002Z" fill="white" style="fill:white;fill:white;fill-opacity:1;"/>
<path id="Subtract_3" opacity="0.7" d="M16.6013 14C12.0509 14 8.31979 16.0747 7.07463 18.827C7.04867 18.8844 7.02379 18.9421 7 19C8.30282 18.7021 9.6587 18.5075 11.0313 18.3747C14.5665 18.0325 19.0341 18.0326 24.2239 18.0329H46.7761C51.9659 18.0326 56.4335 18.0325 59.9687 18.3747C61.3413 18.5075 62.6972 18.7021 64 19C63.9762 18.9421 63.9513 18.8844 63.9254 18.827C62.6802 16.0747 58.949 14 54.3987 14H16.6013Z" fill="white" style="fill:white;fill:white;fill-opacity:1;"/>
</g>
</svg>
