<svg width="20" height="22" viewBox="0 0 20 22" fill="none" xmlns="http://www.w3.org/2000/svg">
<path d="M18.1213 3.87868L17.4142 4.58579L17.4142 4.58579L18.1213 3.87868ZM1.87868 3.87868L1.17157 3.17157L1.17157 3.17157L1.87868 3.87868ZM8.5 12C7.94772 12 7.5 12.4477 7.5 13C7.5 13.5523 7.94772 14 8.5 14V12ZM15 14C15.5523 14 16 13.5523 16 13C16 12.4477 15.5523 12 15 12V14ZM5 12C4.44772 12 4 12.4477 4 13C4 13.5523 4.44772 14 5 14V12ZM5.5 14C6.05229 14 6.5 13.5523 6.5 13C6.5 12.4477 6.05229 12 5.5 12V14ZM5 8.5C4.44772 8.5 4 8.94772 4 9.5C4 10.0523 4.44772 10.5 5 10.5V8.5ZM5.5 10.5C6.05229 10.5 6.5 10.0523 6.5 9.5C6.5 8.94772 6.05229 8.5 5.5 8.5V10.5ZM5 15.5C4.44772 15.5 4 15.9477 4 16.5C4 17.0523 4.44772 17.5 5 17.5V15.5ZM5.5 17.5C6.05229 17.5 6.5 17.0523 6.5 16.5C6.5 15.9477 6.05229 15.5 5.5 15.5V17.5ZM8.5 8.5C7.94772 8.5 7.5 8.94772 7.5 9.5C7.5 10.0523 7.94772 10.5 8.5 10.5V8.5ZM15 10.5C15.5523 10.5 16 10.0523 16 9.5C16 8.94772 15.5523 8.5 15 8.5V10.5ZM8.5 15.5C7.94772 15.5 7.5 15.9477 7.5 16.5C7.5 17.0523 7.94772 17.5 8.5 17.5V15.5ZM15 17.5C15.5523 17.5 16 17.0523 16 16.5C16 15.9477 15.5523 15.5 15 15.5V17.5ZM18 9V15H20V9H18ZM13 20H7V22H13V20ZM2 15V9H0V15H2ZM7 20C5.55752 20 4.57625 19.9979 3.84143 19.8991C3.13538 19.8042 2.80836 19.6368 2.58579 19.4142L1.17157 20.8284C1.82768 21.4845 2.64711 21.7565 3.57494 21.8812C4.474 22.0021 5.61406 22 7 22V20ZM0 15C0 16.3859 -0.00212374 17.526 0.118752 18.4251C0.243496 19.3529 0.515464 20.1723 1.17157 20.8284L2.58579 19.4142C2.36322 19.1916 2.19584 18.8646 2.10092 18.1586C2.00212 17.4237 2 16.4425 2 15H0ZM18 15C18 16.4425 17.9979 17.4237 17.8991 18.1586C17.8042 18.8646 17.6368 19.1916 17.4142 19.4142L18.8284 20.8284C19.4845 20.1723 19.7565 19.3529 19.8812 18.4251C20.0021 17.526 20 16.3859 20 15H18ZM13 22C14.3859 22 15.526 22.0021 16.4251 21.8812C17.3529 21.7565 18.1723 21.4845 18.8284 20.8284L17.4142 19.4142C17.1916 19.6368 16.8646 19.8042 16.1586 19.8991C15.4237 19.9979 14.4425 20 13 20V22ZM20 9C20 7.61406 20.0021 6.474 19.8812 5.57494C19.7565 4.64711 19.4845 3.82768 18.8284 3.17157L17.4142 4.58579C17.6368 4.80836 17.8042 5.13538 17.8991 5.84143C17.9979 6.57625 18 7.55752 18 9H20ZM2 9C2 7.55752 2.00212 6.57625 2.10092 5.84143C2.19584 5.13538 2.36322 4.80836 2.58579 4.58579L1.17157 3.17157C0.515464 3.82768 0.243496 4.64711 0.118752 5.57494C-0.00212374 6.474 0 7.61406 0 9H2ZM13.9944 4.00172C15.0899 4.00782 15.844 4.03664 16.4075 4.14015C16.9424 4.23841 17.2177 4.38925 17.4142 4.58579L18.8284 3.17157C18.2566 2.59973 17.5587 2.31815 16.7688 2.17306C16.0075 2.03322 15.0851 2.00776 14.0056 2.00175L13.9944 4.00172ZM5.99443 2.00175C4.9149 2.00776 3.99246 2.03322 3.23119 2.17306C2.44132 2.31815 1.74342 2.59973 1.17157 3.17157L2.58579 4.58579C2.78233 4.38925 3.05757 4.23841 3.59251 4.14015C4.15604 4.03664 4.91007 4.00782 6.00557 4.00172L5.99443 2.00175ZM8.5 14H15V12H8.5V14ZM5 14H5.5V12H5V14ZM5 10.5H5.5V8.5H5V10.5ZM5 17.5H5.5V15.5H5V17.5ZM8.5 10.5H15V8.5H8.5V10.5ZM8.5 17.5H15V15.5H8.5V17.5ZM7.5 2H12.5V0H7.5V2ZM13 2.5V3.5H15V2.5H13ZM12.5 4H7.5V6H12.5V4ZM7 3.5V2.5H5V3.5H7ZM7.5 4C7.22386 4 7 3.77614 7 3.5H5C5 4.88071 6.11929 6 7.5 6V4ZM13 3.5C13 3.77614 12.7761 4 12.5 4V6C13.8807 6 15 4.88071 15 3.5H13ZM12.5 2C12.7761 2 13 2.22386 13 2.5H15C15 1.11929 13.8807 0 12.5 0V2ZM7.5 0C6.11929 0 5 1.11929 5 2.5H7C7 2.22386 7.22386 2 7.5 2V0Z" fill="#0D0D0D" style="fill:#0D0D0D;fill:color(display-p3 0.0500 0.0500 0.0500);fill-opacity:1;"/>
</svg>
