<svg width="20" height="22" viewBox="0 0 20 22" fill="none" xmlns="http://www.w3.org/2000/svg">
<path d="M18.1213 3.87868L17.591 4.40901L17.591 4.40901L18.1213 3.87868ZM1.87868 3.87868L1.34835 3.34835L1.34835 3.34835L1.87868 3.87868ZM8.5 12.25C8.08579 12.25 7.75 12.5858 7.75 13C7.75 13.4142 8.08579 13.75 8.5 13.75V12.25ZM15 13.75C15.4142 13.75 15.75 13.4142 15.75 13C15.75 12.5858 15.4142 12.25 15 12.25V13.75ZM5 12.25C4.58579 12.25 4.25 12.5858 4.25 13C4.25 13.4142 4.58579 13.75 5 13.75V12.25ZM5.5 13.75C5.91421 13.75 6.25 13.4142 6.25 13C6.25 12.5858 5.91421 12.25 5.5 12.25V13.75ZM5 8.75C4.58579 8.75 4.25 9.08579 4.25 9.5C4.25 9.91421 4.58579 10.25 5 10.25V8.75ZM5.5 10.25C5.91421 10.25 6.25 9.91421 6.25 9.5C6.25 9.08579 5.91421 8.75 5.5 8.75V10.25ZM5 15.75C4.58579 15.75 4.25 16.0858 4.25 16.5C4.25 16.9142 4.58579 17.25 5 17.25V15.75ZM5.5 17.25C5.91421 17.25 6.25 16.9142 6.25 16.5C6.25 16.0858 5.91421 15.75 5.5 15.75V17.25ZM8.5 8.75C8.08579 8.75 7.75 9.08579 7.75 9.5C7.75 9.91421 8.08579 10.25 8.5 10.25V8.75ZM15 10.25C15.4142 10.25 15.75 9.91421 15.75 9.5C15.75 9.08579 15.4142 8.75 15 8.75V10.25ZM8.5 15.75C8.08579 15.75 7.75 16.0858 7.75 16.5C7.75 16.9142 8.08579 17.25 8.5 17.25V15.75ZM15 17.25C15.4142 17.25 15.75 16.9142 15.75 16.5C15.75 16.0858 15.4142 15.75 15 15.75V17.25ZM18.25 9V15H19.75V9H18.25ZM13 20.25H7V21.75H13V20.25ZM1.75 15V9H0.25V15H1.75ZM7 20.25C5.56458 20.25 4.56347 20.2484 3.80812 20.1469C3.07434 20.0482 2.68577 19.8678 2.40901 19.591L1.34835 20.6517C1.95027 21.2536 2.70814 21.5125 3.60825 21.6335C4.48678 21.7516 5.60699 21.75 7 21.75V20.25ZM0.25 15C0.25 16.393 0.248407 17.5132 0.366523 18.3918C0.487539 19.2919 0.746433 20.0497 1.34835 20.6517L2.40901 19.591C2.13225 19.3142 1.9518 18.9257 1.85315 18.1919C1.75159 17.4365 1.75 16.4354 1.75 15H0.25ZM18.25 15C18.25 16.4354 18.2484 17.4365 18.1469 18.1919C18.0482 18.9257 17.8678 19.3142 17.591 19.591L18.6517 20.6517C19.2536 20.0497 19.5125 19.2919 19.6335 18.3918C19.7516 17.5132 19.75 16.393 19.75 15H18.25ZM13 21.75C14.393 21.75 15.5132 21.7516 16.3918 21.6335C17.2919 21.5125 18.0497 21.2536 18.6517 20.6517L17.591 19.591C17.3142 19.8678 16.9257 20.0482 16.1919 20.1469C15.4365 20.2484 14.4354 20.25 13 20.25V21.75ZM19.75 9C19.75 7.60699 19.7516 6.48678 19.6335 5.60825C19.5125 4.70814 19.2536 3.95027 18.6517 3.34835L17.591 4.40901C17.8678 4.68577 18.0482 5.07435 18.1469 5.80812C18.2484 6.56347 18.25 7.56458 18.25 9H19.75ZM1.75 9C1.75 7.56458 1.75159 6.56347 1.85315 5.80812C1.9518 5.07435 2.13225 4.68577 2.40901 4.40901L1.34835 3.34835C0.746433 3.95027 0.487539 4.70814 0.366523 5.60825C0.248407 6.48678 0.25 7.60699 0.25 9H1.75ZM13.9958 3.75173C15.0893 3.75781 15.8644 3.78621 16.4527 3.89426C17.0195 3.99838 17.3475 4.16556 17.591 4.40901L18.6517 3.34835C18.1267 2.82342 17.4816 2.55818 16.7236 2.41895C15.9871 2.28365 15.0857 2.25777 14.0042 2.25175L13.9958 3.75173ZM5.99583 2.25175C4.9143 2.25777 4.01291 2.28365 3.27635 2.41895C2.51835 2.55818 1.87328 2.82342 1.34835 3.34835L2.40901 4.40901C2.65246 4.16556 2.98054 3.99838 3.54735 3.89426C4.13559 3.78621 4.91068 3.75781 6.00417 3.75173L5.99583 2.25175ZM8.5 13.75H15V12.25H8.5V13.75ZM5 13.75H5.5V12.25H5V13.75ZM5 10.25H5.5V8.75H5V10.25ZM5 17.25H5.5V15.75H5V17.25ZM8.5 10.25H15V8.75H8.5V10.25ZM8.5 17.25H15V15.75H8.5V17.25ZM7.5 1.75H12.5V0.25H7.5V1.75ZM13.25 2.5V3.5H14.75V2.5H13.25ZM12.5 4.25H7.5V5.75H12.5V4.25ZM6.75 3.5V2.5H5.25V3.5H6.75ZM7.5 4.25C7.08579 4.25 6.75 3.91421 6.75 3.5H5.25C5.25 4.74264 6.25736 5.75 7.5 5.75V4.25ZM13.25 3.5C13.25 3.91421 12.9142 4.25 12.5 4.25V5.75C13.7426 5.75 14.75 4.74264 14.75 3.5H13.25ZM12.5 1.75C12.9142 1.75 13.25 2.08579 13.25 2.5H14.75C14.75 1.25736 13.7426 0.25 12.5 0.25V1.75ZM7.5 0.25C6.25736 0.25 5.25 1.25736 5.25 2.5H6.75C6.75 2.08579 7.08579 1.75 7.5 1.75V0.25Z" fill="#999999" style="fill:#999999;fill:color(display-p3 0.6000 0.6000 0.6000);fill-opacity:1;"/>
</svg>
