<svg width="70" height="70" viewBox="0 0 70 70" fill="none" xmlns="http://www.w3.org/2000/svg">
<g id="Bold Duotone / Map &#38; Location / Signpost">
<path id="Union" opacity="0.5" fill-rule="evenodd" clip-rule="evenodd" d="M37.1875 5.83337C37.1875 4.62525 36.2081 3.64587 35 3.64587C33.7918 3.64587 32.8125 4.62525 32.8125 5.83337V10.2084H37.1875V5.83337ZM32.8125 30.625V36.4584H37.1875V30.625H32.8125ZM32.8125 61.9792V56.875H37.1875V61.9792H40.8333C42.0414 61.9792 43.0208 62.9586 43.0208 64.1667C43.0208 65.3748 42.0414 66.3542 40.8333 66.3542H29.1666C27.9585 66.3542 26.9791 65.3748 26.9791 64.1667C26.9791 62.9586 27.9585 61.9792 29.1666 61.9792H32.8125Z" fill="white" style="fill:white;fill:white;fill-opacity:1;"/>
<g id="Union_2">
<path d="M32.811 10.2084H19.5518C17.6339 10.2084 16.675 10.2084 15.795 10.4948C15.4068 10.6212 15.0329 10.7879 14.6795 10.9924C13.8784 11.4557 13.2377 12.1693 11.9563 13.5963C9.47512 16.3594 8.2345 17.741 7.93582 19.3556C7.80606 20.0571 7.80606 20.7764 7.93582 21.4778C8.2345 23.0924 9.47511 24.474 11.9563 27.2371C13.2377 28.6642 13.8784 29.3777 14.6795 29.8411C15.0329 30.0455 15.4068 30.2123 15.795 30.3386C16.675 30.625 17.6339 30.625 19.5518 30.625H32.811H37.186H51.0402C55.1365 30.625 57.1847 30.625 58.656 29.6419C59.2929 29.2164 59.8398 28.6695 60.2654 28.0325C61.2485 26.5612 61.2485 24.5131 61.2485 20.4167C61.2485 16.3204 61.2485 14.2722 60.2654 12.8009C59.8398 12.1639 59.2929 11.6171 58.656 11.1915C57.1847 10.2084 55.1365 10.2084 51.0402 10.2084H37.186H32.811Z" fill="white" style="fill:white;fill:white;fill-opacity:1;"/>
<path d="M32.811 36.4584H18.9569C14.8605 36.4584 12.8123 36.4584 11.341 37.4415C10.7041 37.8671 10.1572 38.4139 9.73163 39.0509C8.74854 40.5222 8.74854 42.5704 8.74854 46.6667C8.74854 50.7631 8.74854 52.8112 9.73163 54.2825C10.1572 54.9195 10.7041 55.4664 11.341 55.8919C12.8123 56.875 14.8605 56.875 18.9569 56.875H32.811H37.186H50.4452C52.3631 56.875 53.3221 56.875 54.2021 56.5886C54.5903 56.4623 54.9642 56.2955 55.3176 56.0911C56.1186 55.6277 56.7593 54.9142 58.0407 53.4872C60.5219 50.724 61.7625 49.3424 62.0612 47.7278C62.191 47.0264 62.191 46.3071 62.0612 45.6056C61.7625 43.991 60.5219 42.6094 58.0407 39.8463C56.7593 38.4193 56.1186 37.7057 55.3176 37.2424C54.9642 37.0379 54.5903 36.8712 54.2021 36.7448C53.3221 36.4584 52.3631 36.4584 50.4452 36.4584H37.186H32.811Z" fill="white" style="fill:white;fill:white;fill-opacity:1;"/>
</g>
</g>
</svg>
