<svg width="250" height="69" viewBox="0 0 250 69" fill="none" xmlns="http://www.w3.org/2000/svg">
<g clip-path="url(#clip0_1_4)">
<path d="M20.6572 49.693L13.166 50.7895C8.3245 53.0792 5.58334 58.1076 4.85101 63.1391H60.5814C64.5101 62.7762 68.4419 60.2158 70.1768 56.5552L75.0189 40.9124C75.8403 37.8892 74.6528 35.0582 73.4653 32.587C72.0044 29.7491 69.0783 28.5596 66.5221 27.5555L26.1389 27.2779L24.8592 26.9149C24.9482 23.621 26.2317 20.9684 27.2342 18.1336H66.8889L72.8258 17.0371C77.9419 15.1104 80.1351 9.7159 80.9564 4.95818H24.5852C21.3895 5.69106 18.19 7.79169 16.2696 10.8117L11.7052 25.0837C11.5202 28.1031 10.7917 31.8528 12.3453 34.324C14.2614 37.4364 17.3649 39.4447 20.6572 40.2706L61.8617 40.7265C60.8586 43.6536 60.4924 46.9512 59.0278 49.693H20.6572Z" fill="white" style="fill:white;fill:white;fill-opacity:1;"/>
<path d="M89.2715 11.0893L81.8693 35.4211L77.6673 50.6087L78.5808 56.5552C80.1345 60.0343 83.423 62.8653 87.3548 63.1391L135.136 63.3244C138.336 62.4094 141.439 60.2158 143.448 57.1964L147.835 43.106C148.109 40.6386 148.383 37.6185 147.654 35.2403C146.463 31.672 143.086 28.2896 139.246 27.7376L105.537 28.012L106.631 32.7691C108.455 36.4297 111.84 39.7236 115.857 40.4533L134.681 40.913L132.302 49.9681H91.7342L91.0057 49.2346L99.1364 20.6939L100.509 18.1336H142.534L148.016 16.1215C152.403 13.6503 153.776 9.25619 154.597 4.95818H99.1364C95.3011 5.59874 91.7355 7.51789 89.2715 11.0893Z" fill="white" style="fill:white;fill:white;fill-opacity:1;"/>
<path d="M161.903 13.742L150.665 51.2454C149.937 55.6396 147.928 59.0226 146.918 63.3244H155.511C159.802 62.135 163.001 59.1155 164.736 54.999L179.814 5.14282H172.412C167.937 5.69106 163.457 9.44083 161.903 13.742Z" fill="#FFCC2D" style="fill:#FFCC2D;fill:color(display-p3 1.0000 0.8000 0.1765);fill-opacity:1;"/>
<path d="M182.46 13.0085L173.511 43.3791L167.112 63.7797C169.672 63.872 172.05 63.6905 174.333 63.1385C177.44 61.4931 180.362 58.3814 180.91 54.9984L192.787 15.6612L196.535 5.13839H192.148C187.853 5.59874 183.65 8.80343 182.46 13.0085Z" fill="#FFCC2D" style="fill:#FFCC2D;fill:color(display-p3 1.0000 0.8000 0.1765);fill-opacity:1;"/>
<path d="M200.278 11.5453L188.218 52.8054L184.471 63.7797C187.031 63.7797 189.679 63.872 191.873 62.8647C194.155 61.9497 196.26 60.0305 196.989 57.6517L209.415 14.5647L212.98 5.13902H209.233C205.028 5.59874 202.105 7.97696 200.278 11.5453Z" fill="#FFCC2D" style="fill:#FFCC2D;fill:color(display-p3 1.0000 0.8000 0.1765);fill-opacity:1;"/>
<path d="M202.198 63.7797C206.581 64.2394 210.235 62.5017 212.34 59.3893L228.509 5.3243C224.218 4.86459 220.471 6.60226 218.64 9.71463L207.679 45.5765L202.198 63.7797Z" fill="#FFCC2D" style="fill:#FFCC2D;fill:color(display-p3 1.0000 0.8000 0.1765);fill-opacity:1;"/>
<path d="M236.821 9.71463L220.194 63.965C223.667 64.1464 226.956 63.3238 228.968 60.2152L245.595 5.5981H241.941C239.747 6.05781 237.924 8.06992 236.821 9.71463Z" fill="#FFCC2D" style="fill:#FFCC2D;fill:color(display-p3 1.0000 0.8000 0.1765);fill-opacity:1;"/>
</g>
<defs>
<clipPath id="clip0_1_4">
<rect width="250" height="68.2927" fill="white" style="fill:white;fill:white;fill-opacity:1;"/>
</clipPath>
</defs>
</svg>
